<?xml version="1.0" encoding="UTF-8" standalone="no"?>
<!DOCTYPE svg PUBLIC "-//W3C//DTD SVG 1.1//EN"
 "http://www.w3.org/Graphics/SVG/1.1/DTD/svg11.dtd">
<!-- Generated by graphviz version 2.43.0 (0)
 -->
<!-- Title: G Pages: 1 -->
<svg width="573pt" height="962pt"
 viewBox="0.00 0.00 573.00 962.00" xmlns="http://www.w3.org/2000/svg" xmlns:xlink="http://www.w3.org/1999/xlink">
<g id="graph0" class="graph" transform="scale(1 1) rotate(0) translate(4 958)">
<title>G</title>
<polygon fill="white" stroke="transparent" points="-4,4 -4,-958 569,-958 569,4 -4,4"/>
<!-- main_mem -->
<g id="node1" class="node">
<title>main_mem</title>
<polygon fill="Wheat" stroke="black" points="105,-495 0,-495 0,-459 105,-459 105,-495"/>
<text text-anchor="middle" x="52.5" y="-473.2" font-family="Times,serif" font-size="16.00" fill="blue">main_mem</text>
</g>
<!-- mem_opt_init -->
<g id="node2" class="node">
<title>mem_opt_init</title>
<polygon fill="Wheat" stroke="black" points="312.5,-954 184.5,-954 184.5,-918 312.5,-918 312.5,-954"/>
<text text-anchor="middle" x="248.5" y="-932.2" font-family="Times,serif" font-size="16.00" fill="blue">mem_opt_init</text>
</g>
<!-- main_mem&#45;&gt;mem_opt_init -->
<g id="edge1" class="edge">
<title>main_mem&#45;&gt;mem_opt_init</title>
<path fill="none" stroke="black" d="M54.65,-495.08C59.74,-569.05 82.54,-847.64 141,-909 150.07,-918.52 161.98,-924.87 174.53,-929.07"/>
<polygon fill="black" stroke="black" points="173.65,-932.46 184.23,-931.88 175.6,-925.73 173.65,-932.46"/>
</g>
<!-- xreopen -->
<g id="node3" class="node">
<title>xreopen</title>
<polygon fill="Wheat" stroke="black" points="290,-900 207,-900 207,-864 290,-864 290,-900"/>
<text text-anchor="middle" x="248.5" y="-878.2" font-family="Times,serif" font-size="16.00" fill="blue">xreopen</text>
</g>
<!-- main_mem&#45;&gt;xreopen -->
<g id="edge2" class="edge">
<title>main_mem&#45;&gt;xreopen</title>
<path fill="none" stroke="black" d="M55.22,-495.1C62.05,-563.14 89.39,-802.3 141,-855 155.49,-869.8 176.85,-876.9 196.64,-880.17"/>
<polygon fill="black" stroke="black" points="196.42,-883.67 206.8,-881.55 197.36,-876.74 196.42,-883.67"/>
</g>
<!-- bwa_set_rg -->
<g id="node4" class="node">
<title>bwa_set_rg</title>
<polygon fill="Wheat" stroke="black" points="303.5,-846 193.5,-846 193.5,-810 303.5,-810 303.5,-846"/>
<text text-anchor="middle" x="248.5" y="-824.2" font-family="Times,serif" font-size="16.00" fill="blue">bwa_set_rg</text>
</g>
<!-- main_mem&#45;&gt;bwa_set_rg -->
<g id="edge3" class="edge">
<title>main_mem&#45;&gt;bwa_set_rg</title>
<path fill="none" stroke="black" d="M55.96,-495.02C64.7,-556.54 96.16,-756.85 141,-801 152.37,-812.2 167.69,-818.96 183.15,-822.99"/>
<polygon fill="black" stroke="black" points="182.78,-826.49 193.3,-825.26 184.31,-819.66 182.78,-826.49"/>
</g>
<!-- bwa_insert_header -->
<g id="node5" class="node">
<title>bwa_insert_header</title>
<polygon fill="Wheat" stroke="black" points="335,-792 162,-792 162,-756 335,-756 335,-792"/>
<text text-anchor="middle" x="248.5" y="-770.2" font-family="Times,serif" font-size="16.00" fill="blue">bwa_insert_header</text>
</g>
<!-- main_mem&#45;&gt;bwa_insert_header -->
<g id="edge4" class="edge">
<title>main_mem&#45;&gt;bwa_insert_header</title>
<path fill="none" stroke="black" d="M53.71,-495.22C55.3,-543.77 66.57,-677.26 141,-747 144.64,-750.41 148.64,-753.4 152.9,-756.03"/>
<polygon fill="black" stroke="black" points="151.5,-759.25 161.96,-760.92 154.82,-753.09 151.5,-759.25"/>
</g>
<!-- update_a  -->
<g id="node6" class="node">
<title>update_a </title>
<polygon fill="Wheat" stroke="black" points="297.5,-738 199.5,-738 199.5,-702 297.5,-702 297.5,-738"/>
<text text-anchor="middle" x="248.5" y="-716.2" font-family="Times,serif" font-size="16.00" fill="blue">update_a </text>
</g>
<!-- main_mem&#45;&gt;update_a  -->
<g id="edge5" class="edge">
<title>main_mem&#45;&gt;update_a </title>
<path fill="none" stroke="black" d="M55.39,-495.23C60.72,-536.88 79.7,-639.55 141,-693 154.4,-704.68 172.16,-711.44 189.33,-715.31"/>
<polygon fill="black" stroke="black" points="188.85,-718.78 199.33,-717.26 190.19,-711.91 188.85,-718.78"/>
</g>
<!-- bwa_fill_scmat -->
<g id="node7" class="node">
<title>bwa_fill_scmat</title>
<polygon fill="Wheat" stroke="black" points="317,-684 180,-684 180,-648 317,-648 317,-684"/>
<text text-anchor="middle" x="248.5" y="-662.2" font-family="Times,serif" font-size="16.00" fill="blue">bwa_fill_scmat</text>
</g>
<!-- main_mem&#45;&gt;bwa_fill_scmat -->
<g id="edge6" class="edge">
<title>main_mem&#45;&gt;bwa_fill_scmat</title>
<path fill="none" stroke="black" d="M58.09,-495.24C67.58,-529.01 92.59,-601.28 141,-639 149.64,-645.73 159.76,-650.8 170.27,-654.62"/>
<polygon fill="black" stroke="black" points="169.4,-658.02 179.99,-657.78 171.56,-651.36 169.4,-658.02"/>
</g>
<!-- bwa_idx_load_from_shm -->
<g id="node8" class="node">
<title>bwa_idx_load_from_shm</title>
<polygon fill="Wheat" stroke="black" points="356,-630 141,-630 141,-594 356,-594 356,-630"/>
<text text-anchor="middle" x="248.5" y="-608.2" font-family="Times,serif" font-size="16.00" fill="blue">bwa_idx_load_from_shm</text>
</g>
<!-- main_mem&#45;&gt;bwa_idx_load_from_shm -->
<g id="edge7" class="edge">
<title>main_mem&#45;&gt;bwa_idx_load_from_shm</title>
<path fill="none" stroke="black" d="M63.31,-495.34C77.28,-519.65 105.22,-562.11 141,-585 143.49,-586.59 146.06,-588.09 148.7,-589.49"/>
<polygon fill="black" stroke="black" points="147.4,-592.75 157.92,-593.95 150.44,-586.45 147.4,-592.75"/>
</g>
<!-- bwa_idx_load -->
<g id="node9" class="node">
<title>bwa_idx_load</title>
<polygon fill="Wheat" stroke="black" points="312,-576 185,-576 185,-540 312,-540 312,-576"/>
<text text-anchor="middle" x="248.5" y="-554.2" font-family="Times,serif" font-size="16.00" fill="blue">bwa_idx_load</text>
</g>
<!-- main_mem&#45;&gt;bwa_idx_load -->
<g id="edge8" class="edge">
<title>main_mem&#45;&gt;bwa_idx_load</title>
<path fill="none" stroke="black" d="M78.42,-495.23C95.35,-506.88 118.64,-521.53 141,-531 151.77,-535.56 163.49,-539.49 175.09,-542.82"/>
<polygon fill="black" stroke="black" points="174.22,-546.21 184.79,-545.48 176.07,-539.46 174.22,-546.21"/>
</g>
<!-- kopen -->
<g id="node10" class="node">
<title>kopen</title>
<polygon fill="Wheat" stroke="black" points="282,-522 215,-522 215,-486 282,-486 282,-522"/>
<text text-anchor="middle" x="248.5" y="-500.2" font-family="Times,serif" font-size="16.00" fill="blue">kopen</text>
</g>
<!-- main_mem&#45;&gt;kopen -->
<g id="edge9" class="edge">
<title>main_mem&#45;&gt;kopen</title>
<path fill="none" stroke="black" d="M105.23,-484.2C136.36,-488.53 175.5,-493.98 204.85,-498.06"/>
<polygon fill="black" stroke="black" points="204.4,-501.54 214.79,-499.45 205.37,-494.6 204.4,-501.54"/>
</g>
<!-- gzdopen -->
<g id="node11" class="node">
<title>gzdopen</title>
<polygon fill="Wheat" stroke="black" points="291.5,-468 205.5,-468 205.5,-432 291.5,-432 291.5,-468"/>
<text text-anchor="middle" x="248.5" y="-446.2" font-family="Times,serif" font-size="16.00" fill="blue">gzdopen</text>
</g>
<!-- main_mem&#45;&gt;gzdopen -->
<g id="edge10" class="edge">
<title>main_mem&#45;&gt;gzdopen</title>
<path fill="none" stroke="black" d="M105.23,-469.8C133.12,-465.92 167.45,-461.14 195.4,-457.25"/>
<polygon fill="black" stroke="black" points="195.96,-460.71 205.38,-455.86 195,-453.77 195.96,-460.71"/>
</g>
<!-- kseq_init -->
<g id="node12" class="node">
<title>kseq_init</title>
<polygon fill="Wheat" stroke="black" points="294,-414 203,-414 203,-378 294,-378 294,-414"/>
<text text-anchor="middle" x="248.5" y="-392.2" font-family="Times,serif" font-size="16.00" fill="blue">kseq_init</text>
</g>
<!-- main_mem&#45;&gt;kseq_init -->
<g id="edge11" class="edge">
<title>main_mem&#45;&gt;kseq_init</title>
<path fill="none" stroke="black" d="M78.42,-458.77C95.35,-447.12 118.64,-432.47 141,-423 157.44,-416.04 176.11,-410.55 193.16,-406.4"/>
<polygon fill="black" stroke="black" points="194.05,-409.79 202.99,-404.11 192.46,-402.97 194.05,-409.79"/>
</g>
<!-- bwa_print_sam_hdr -->
<g id="node13" class="node">
<title>bwa_print_sam_hdr</title>
<polygon fill="Wheat" stroke="black" points="337,-360 160,-360 160,-324 337,-324 337,-360"/>
<text text-anchor="middle" x="248.5" y="-338.2" font-family="Times,serif" font-size="16.00" fill="blue">bwa_print_sam_hdr</text>
</g>
<!-- main_mem&#45;&gt;bwa_print_sam_hdr -->
<g id="edge12" class="edge">
<title>main_mem&#45;&gt;bwa_print_sam_hdr</title>
<path fill="none" stroke="black" d="M63.31,-458.66C77.28,-434.35 105.22,-391.89 141,-369 144.12,-367.01 147.37,-365.16 150.73,-363.45"/>
<polygon fill="black" stroke="black" points="152.21,-366.62 159.81,-359.24 149.27,-360.27 152.21,-366.62"/>
</g>
<!-- kt_pipeline -->
<g id="node14" class="node">
<title>kt_pipeline</title>
<polygon fill="Wheat" stroke="black" points="302.5,-306 194.5,-306 194.5,-270 302.5,-270 302.5,-306"/>
<text text-anchor="middle" x="248.5" y="-284.2" font-family="Times,serif" font-size="16.00" fill="blue">kt_pipeline</text>
</g>
<!-- main_mem&#45;&gt;kt_pipeline -->
<g id="edge13" class="edge">
<title>main_mem&#45;&gt;kt_pipeline</title>
<path fill="none" stroke="black" d="M58.09,-458.76C67.58,-424.99 92.59,-352.72 141,-315 153.47,-305.29 169.02,-299.03 184.35,-295.02"/>
<polygon fill="black" stroke="black" points="185.42,-298.36 194.36,-292.69 183.83,-291.54 185.42,-298.36"/>
</g>
<!-- process  -->
<g id="node15" class="node">
<title>process </title>
<polygon fill="Wheat" stroke="black" points="291,-252 206,-252 206,-216 291,-216 291,-252"/>
<text text-anchor="middle" x="248.5" y="-230.2" font-family="Times,serif" font-size="16.00" fill="blue">process </text>
</g>
<!-- main_mem&#45;&gt;process  -->
<g id="edge14" class="edge">
<title>main_mem&#45;&gt;process </title>
<path fill="none" stroke="black" d="M55.39,-458.77C60.72,-417.12 79.7,-314.45 141,-261 156.11,-247.82 176.77,-240.92 195.87,-237.35"/>
<polygon fill="black" stroke="black" points="196.65,-240.77 205.97,-235.73 195.55,-233.86 196.65,-240.77"/>
</g>
<!-- bwa_idx_destroy -->
<g id="node20" class="node">
<title>bwa_idx_destroy</title>
<polygon fill="Wheat" stroke="black" points="325,-198 172,-198 172,-162 325,-162 325,-198"/>
<text text-anchor="middle" x="248.5" y="-176.2" font-family="Times,serif" font-size="16.00" fill="blue">bwa_idx_destroy</text>
</g>
<!-- main_mem&#45;&gt;bwa_idx_destroy -->
<g id="edge19" class="edge">
<title>main_mem&#45;&gt;bwa_idx_destroy</title>
<path fill="none" stroke="black" d="M53.71,-458.78C55.3,-410.23 66.57,-276.74 141,-207 147.25,-201.14 154.59,-196.51 162.44,-192.85"/>
<polygon fill="black" stroke="black" points="163.93,-196.02 171.86,-188.99 161.27,-189.54 163.93,-196.02"/>
</g>
<!-- kseq_destroy -->
<g id="node21" class="node">
<title>kseq_destroy</title>
<polygon fill="Wheat" stroke="black" points="311,-144 186,-144 186,-108 311,-108 311,-144"/>
<text text-anchor="middle" x="248.5" y="-122.2" font-family="Times,serif" font-size="16.00" fill="blue">kseq_destroy</text>
</g>
<!-- main_mem&#45;&gt;kseq_destroy -->
<g id="edge20" class="edge">
<title>main_mem&#45;&gt;kseq_destroy</title>
<path fill="none" stroke="black" d="M55.96,-458.98C64.7,-397.46 96.16,-197.15 141,-153 150.59,-143.56 162.97,-137.27 175.89,-133.12"/>
<polygon fill="black" stroke="black" points="177.14,-136.4 185.83,-130.34 175.26,-129.66 177.14,-136.4"/>
</g>
<!-- err_gzclose -->
<g id="node22" class="node">
<title>err_gzclose</title>
<polygon fill="Wheat" stroke="black" points="303.5,-90 193.5,-90 193.5,-54 303.5,-54 303.5,-90"/>
<text text-anchor="middle" x="248.5" y="-68.2" font-family="Times,serif" font-size="16.00" fill="blue">err_gzclose</text>
</g>
<!-- main_mem&#45;&gt;err_gzclose -->
<g id="edge21" class="edge">
<title>main_mem&#45;&gt;err_gzclose</title>
<path fill="none" stroke="black" d="M55.22,-458.9C62.05,-390.86 89.39,-151.7 141,-99 152.22,-87.54 167.56,-80.7 183.1,-76.67"/>
<polygon fill="black" stroke="black" points="184.3,-79.99 193.3,-74.41 182.78,-73.16 184.3,-79.99"/>
</g>
<!-- kclose -->
<g id="node23" class="node">
<title>kclose</title>
<polygon fill="Wheat" stroke="black" points="282.5,-36 214.5,-36 214.5,0 282.5,0 282.5,-36"/>
<text text-anchor="middle" x="248.5" y="-14.2" font-family="Times,serif" font-size="16.00" fill="blue">kclose</text>
</g>
<!-- main_mem&#45;&gt;kclose -->
<g id="edge22" class="edge">
<title>main_mem&#45;&gt;kclose</title>
<path fill="none" stroke="black" d="M54.65,-458.92C59.74,-384.95 82.54,-106.36 141,-45 157.13,-28.07 182.23,-21.16 204.02,-18.56"/>
<polygon fill="black" stroke="black" points="204.43,-22.04 214.07,-17.63 203.79,-15.07 204.43,-22.04"/>
</g>
<!-- bseq_read -->
<g id="node16" class="node">
<title>bseq_read</title>
<polygon fill="Wheat" stroke="black" points="529,-333 428,-333 428,-297 529,-297 529,-333"/>
<text text-anchor="middle" x="478.5" y="-311.2" font-family="Times,serif" font-size="16.00" fill="blue">bseq_read</text>
</g>
<!-- process &#45;&gt;bseq_read -->
<g id="edge15" class="edge">
<title>process &#45;&gt;bseq_read</title>
<path fill="none" stroke="black" d="M291.02,-240.56C311.27,-244.74 335.61,-251.25 356,-261 374.04,-269.63 374.21,-278.86 392,-288 400.24,-292.23 409.26,-295.96 418.26,-299.18"/>
<polygon fill="black" stroke="black" points="417.39,-302.58 427.98,-302.48 419.64,-295.95 417.39,-302.58"/>
</g>
<!-- bseq_classify -->
<g id="node17" class="node">
<title>bseq_classify</title>
<polygon fill="Wheat" stroke="black" points="541,-279 416,-279 416,-243 541,-243 541,-279"/>
<text text-anchor="middle" x="478.5" y="-257.2" font-family="Times,serif" font-size="16.00" fill="blue">bseq_classify</text>
</g>
<!-- process &#45;&gt;bseq_classify -->
<g id="edge16" class="edge">
<title>process &#45;&gt;bseq_classify</title>
<path fill="none" stroke="black" d="M291.05,-238.92C323.01,-242.7 367.92,-248.02 405.67,-252.49"/>
<polygon fill="black" stroke="black" points="405.26,-255.97 415.6,-253.67 406.08,-249.02 405.26,-255.97"/>
</g>
<!-- mem_process_seqs -->
<g id="node18" class="node">
<title>mem_process_seqs</title>
<polygon fill="Wheat" stroke="black" points="565,-225 392,-225 392,-189 565,-189 565,-225"/>
<text text-anchor="middle" x="478.5" y="-203.2" font-family="Times,serif" font-size="16.00" fill="blue">mem_process_seqs</text>
</g>
<!-- process &#45;&gt;mem_process_seqs -->
<g id="edge17" class="edge">
<title>process &#45;&gt;mem_process_seqs</title>
<path fill="none" stroke="black" d="M291.05,-229.08C316.44,-226.07 350,-222.1 381.65,-218.35"/>
<polygon fill="black" stroke="black" points="382.32,-221.8 391.84,-217.14 381.5,-214.84 382.32,-221.8"/>
</g>
<!-- err_fputs -->
<g id="node19" class="node">
<title>err_fputs</title>
<polygon fill="Wheat" stroke="black" points="524.5,-171 432.5,-171 432.5,-135 524.5,-135 524.5,-171"/>
<text text-anchor="middle" x="478.5" y="-149.2" font-family="Times,serif" font-size="16.00" fill="blue">err_fputs</text>
</g>
<!-- process &#45;&gt;err_fputs -->
<g id="edge18" class="edge">
<title>process &#45;&gt;err_fputs</title>
<path fill="none" stroke="black" d="M291.02,-227.44C311.27,-223.26 335.61,-216.75 356,-207 374.04,-198.37 374.21,-189.14 392,-180 401.65,-175.04 412.37,-170.78 422.88,-167.21"/>
<polygon fill="black" stroke="black" points="423.99,-170.53 432.43,-164.12 421.84,-163.87 423.99,-170.53"/>
</g>
</g>
</svg>
